<?xml version="1.0" encoding="UTF-8"?>
<svg version="1.1" xmlns="http://www.w3.org/2000/svg" width="576" height="189">
<path d="M0 0 C190.08 0 380.16 0 576 0 C576 62.37 576 124.74 576 189 C385.92 189 195.84 189 0 189 C0 126.63 0 64.26 0 0 Z " fill="#FEFEFE" transform="translate(0,0)"/>
<path d="M0 0 C0.04691287 2.67403376 0.04688872 5.32734281 0 8 C-0.020625 9.216875 -0.04125 10.43375 -0.0625 11.6875 C-1.23005302 15.812854 -2.81844208 16.88629538 -6.30859375 19.15234375 C-8 20 -8 20 -10 20 C-9.54781055 23.07488825 -8.86310039 25.26832323 -7.4375 28.0625 C-6 31 -6 31 -6 35 C-5.34 35 -4.68 35 -4 35 C-3.62101562 34.12021484 -3.62101562 34.12021484 -3.234375 33.22265625 C-0.15690133 27.68125588 6.12765697 23.11404349 12 21 C20.56359876 19.52119959 20.56359876 19.52119959 25 21 C24.7311904 27.4514304 22.57611776 31.44240903 18 36 C11.7561721 40.69874506 3.98487412 45 -4 45 C-3.80664062 45.75023437 -3.61328125 46.50046875 -3.4140625 47.2734375 C-2.59034848 50.5112045 -1.79031528 53.75392454 -1 57 C-0.68095703 58.28777344 -0.68095703 58.28777344 -0.35546875 59.6015625 C1.25352885 66.70893318 3.02971855 74.93466256 -0.34375 81.69140625 C-2 84.125 -2 84.125 -3.6875 86.2578125 C-5.2005726 87.90269375 -5.2005726 87.90269375 -5 90 C-3.57144551 91.36997109 -3.57144551 91.36997109 -1.75 92.75 C1.63773868 95.5536458 3.82957373 98.18004977 6 102 C6 102.66 6 103.32 6 104 C6.66 104 7.32 104 8 104 C8.29003906 102.96939453 8.29003906 102.96939453 8.5859375 101.91796875 C8.84632813 101.01691406 9.10671875 100.11585937 9.375 99.1875 C9.63023437 98.29417969 9.88546875 97.40085937 10.1484375 96.48046875 C11 94 11 94 13 91 C16.125 90.8125 16.125 90.8125 19 91 C22.53152229 98.89498973 25.4656042 106.96292951 28.3125 115.125 C28.67408203 116.1569751 29.03566406 117.1889502 29.40820312 118.25219727 C29.74400391 119.22342529 30.07980469 120.19465332 30.42578125 121.1953125 C30.72911377 122.07203613 31.03244629 122.94875977 31.3449707 123.85205078 C32 126 32 126 32 128 C30.35 128 28.7 128 27 128 C25.02 123.05 25.02 123.05 23 118 C18.05 118 13.1 118 8 118 C7.649375 119.69125 7.29875 121.3825 6.9375 123.125 C5.83797477 127.30636757 5.10642202 129.37149297 1.4375 131.6875 C-1.46854816 133.80154342 -1.96160575 134.83412926 -2.79296875 138.42578125 C-3.2401647 141.89837725 -3.4969726 145.38725581 -3.77880859 148.87646484 C-4.45077055 155.32759632 -5.95210163 161.85630489 -8 168 C-14.49678184 168.1047868 -17.43946156 167.08160993 -22.25 162.625 C-23.03890625 161.83351562 -23.8278125 161.04203125 -24.640625 160.2265625 C-28.67558613 156.41873494 -32.08687983 154.72190734 -37.5625 153.9375 C-41.11343259 153.4203739 -43.86716253 152.77650313 -47 151 C-47 150.67 -47 150.34 -47 150 C-46.0821875 149.82984375 -45.164375 149.6596875 -44.21875 149.484375 C-37.18648176 148.09564976 -31.21162875 146.60274467 -25 143 C-26.04800781 142.92652344 -26.04800781 142.92652344 -27.1171875 142.8515625 C-28.02726562 142.77679688 -28.93734375 142.70203125 -29.875 142.625 C-30.77992187 142.55539063 -31.68484375 142.48578125 -32.6171875 142.4140625 C-35 142 -35 142 -37 140 C-37.23046875 137.21484375 -37.23046875 137.21484375 -37.1875 133.9375 C-37.18105469 132.85339844 -37.17460938 131.76929688 -37.16796875 130.65234375 C-37 128 -37 128 -36 127 C-35.84213692 125.14825294 -35.74892644 123.2909089 -35.68359375 121.43359375 C-35.64169922 120.30888672 -35.59980469 119.18417969 -35.55664062 118.02539062 C-35.51732422 116.84138672 -35.47800781 115.65738281 -35.4375 114.4375 C-35.37272461 112.65569336 -35.37272461 112.65569336 -35.30664062 110.83789062 C-35.20016454 107.89205216 -35.09815159 104.9461257 -35 102 C-35.78012451 102.01571045 -36.56024902 102.0314209 -37.36401367 102.04760742 C-40.97176572 102.11078907 -44.57940075 102.1492516 -48.1875 102.1875 C-50.02731445 102.22520508 -50.02731445 102.22520508 -51.90429688 102.26367188 C-59.4711468 102.32356778 -66.02194127 101.5683108 -73.28637695 99.39941406 C-76.00240017 98.74094651 -76.00240017 98.74094651 -78.26513672 100.08886719 C-80.04764005 101.60296655 -81.49724594 103.21159848 -83 105 C-83.886875 105.680625 -84.77375 106.36125 -85.6875 107.0625 C-88.10872912 108.93407949 -88.10872912 108.93407949 -89.875 111.5625 C-92.61821517 114.70912916 -95.05496257 115.70766015 -99 117 C-102.4375 117.1875 -102.4375 117.1875 -105 117 C-105.68440259 107.72254262 -103.77652933 102.17905007 -97.875 95.0625 C-96.2469144 93.21086897 -95.21355161 92.1067758 -93 91 C-93.60252006 87.84888933 -94.63788005 85.9762437 -96.5625 83.4375 C-101.78501838 75.27165478 -98.71420618 64.94167005 -97 56 C-96.62401576 53.91684407 -96.24896501 51.83351937 -95.875 49.75 C-95.58424419 48.16649915 -95.29293565 46.58309905 -95 45 C-96.299375 45.061875 -97.59875 45.12375 -98.9375 45.1875 C-107.47678957 45.13396213 -113.13286 42.46548655 -119.37109375 36.71875 C-121.44698254 34.52836374 -122.84358377 32.6430445 -123.5625 29.6875 C-122.65297512 25.34199222 -119.56176199 23.41092683 -116 21 C-110.38557287 18.1275024 -104.15520276 18.82072225 -98 19 C-98.2165625 18.33613281 -98.433125 17.67226563 -98.65625 16.98828125 C-98.9346875 16.10527344 -99.213125 15.22226563 -99.5 14.3125 C-99.7784375 13.44238281 -100.056875 12.57226562 -100.34375 11.67578125 C-100.99850805 9.00608323 -101.11831495 6.73603316 -101 4 C-95.71750169 5.42770225 -91.35395854 7.98871678 -86.68359375 10.7578125 C-83.77084892 12.10606993 -82.16214929 12.46426335 -79 12 C-77.01844971 10.86372583 -77.01844971 10.86372583 -75.25 9.25 C-65.45489889 1.41762237 -55.26301067 0.26207266 -43 1 C-33.61374034 2.65104568 -25.7232003 7.65316902 -18 13 C-16.89591797 12.09507813 -16.89591797 12.09507813 -15.76953125 11.171875 C-14.79371094 10.37265625 -13.81789063 9.5734375 -12.8125 8.75 C-11.84957031 7.96109375 -10.88664062 7.1721875 -9.89453125 6.359375 C-8.93933594 5.58078125 -7.98414063 4.8021875 -7 4 C-6.09636719 3.24203125 -5.19273437 2.4840625 -4.26171875 1.703125 C-2 -0 -2 -0 0 0 Z " fill="#FEB5B8" transform="translate(147,0)"/>
<path d="M0 0 C47.85 0 95.7 0 145 0 C141.45235012 3.54764988 138.0631491 6.68396398 134.1875 9.8125 C133.21167969 10.60269531 132.23585937 11.39289062 131.23046875 12.20703125 C130.49441406 12.79871094 129.75835937 13.39039063 129 14 C128.31035156 13.54109375 127.62070313 13.0821875 126.91015625 12.609375 C114.01599611 4.19014286 102.91502317 -0.13740916 87.21484375 2.4609375 C80.21916968 4.34566744 73.15403379 7.84596621 68 13 C62.16037851 12.77399717 58.0141409 10.75104277 53.0625 7.9375 C52.37865234 7.56044922 51.69480469 7.18339844 50.99023438 6.79492188 C49.32142204 5.87299058 47.65992136 4.93784488 46 4 C46.2165625 4.74765625 46.433125 5.4953125 46.65625 6.265625 C46.9346875 7.25046875 47.213125 8.2353125 47.5 9.25 C47.7784375 10.22453125 48.056875 11.1990625 48.34375 12.203125 C49 15 49 15 49 19 C48.23816406 19.02578125 47.47632813 19.0515625 46.69140625 19.078125 C39.11122136 19.49451468 32.28130435 20.47081669 26.265625 25.4296875 C24.67888587 27.08685706 24.67888587 27.08685706 24.8125 30.25 C26.48844903 35.54247062 29.41679375 38.00656919 34 41 C39.76207172 43.78449321 45.67874398 44.49831301 52 45 C51.57148405 50.72858168 50.98060279 56.34801039 49.9375 62 C47.9104224 73.11377655 47.9104224 73.11377655 51.4375 83.4375 C52.11619141 84.33275391 52.11619141 84.33275391 52.80859375 85.24609375 C54.10581873 87.15577905 54.56929955 88.74748614 55 91 C54.113125 91.66 53.22625 92.32 52.3125 93 C44.49887337 99.64989501 43.01751636 107.0374518 42 117 C50.21367774 115.61280109 55.3072358 113.33226818 60.57421875 106.58984375 C63.71349281 103.08933815 67.7961404 100.1019298 72 98 C73.74906267 98.40609866 75.48159022 98.88418397 77.203125 99.39453125 C84.39494969 101.28276137 91.34486621 101.55222877 98.75 101.6875 C100.67199219 101.73874023 100.67199219 101.73874023 102.6328125 101.79101562 C105.75492051 101.87256322 108.87744311 101.93797661 112 102 C112 107.28 112 112.56 112 118 C111.01 117.01 110.02 116.02 109 115 C108.01 115 107.02 115 106 115 C105.34 114.34 104.68 113.68 104 113 C104.33 112.67 104.66 112.34 105 112 C101.25389169 110.75129723 97.88323121 110.35755366 94 111 C89.70474319 113.16494799 86.248327 116.49180684 83 120 C82.484375 119.67 81.96875 119.34 81.4375 119 C78.21973488 117.67989123 75.4429472 117.86757895 72 118 C72 119.32 72 120.64 72 122 C72.66 122.66 73.32 123.32 74 124 C74.22705078 125.97119141 74.22705078 125.97119141 74.1953125 128.3515625 C74.18886719 129.20234375 74.18242188 130.053125 74.17578125 130.9296875 C74.15064453 132.26386719 74.15064453 132.26386719 74.125 133.625 C74.11597656 134.5221875 74.10695313 135.419375 74.09765625 136.34375 C74.0740497 138.56276586 74.0411231 140.78125077 74 143 C67.01150172 143.31746964 61.51042834 142.64191295 55 140 C54.40146146 148.77856523 55.80079189 156.25181393 58.125 164.62890625 C59 168 59 168 59 171 C52.20712702 171.40757238 48.66155942 169.79365961 43.125 166.0625 C40.65349012 162.50061812 40.84378692 161.44822417 41.0625 157.25 C41.32057735 151.45042834 40.0836455 148.35251486 36.80078125 143.64453125 C34.59142944 141.62688025 32.93264416 141.33473111 30 141 C28.45866462 145.62400615 28.11389485 150.35687494 29.68359375 155.0390625 C31.92428865 159.40888242 34.49445193 161.25922007 39 163 C39 163.66 39 164.32 39 165 C39.58523437 165.2784375 40.17046875 165.556875 40.7734375 165.84375 C42.86634648 166.93059396 44.69423261 168.15257084 46.625 169.5 C49.87152386 171.61387468 52.28956676 172.28893841 56.125 172.6875 C59.46409868 173.2031712 60.61812711 173.52223458 62.7578125 176.19921875 C63.74735721 177.97366411 64.70125806 179.76849097 65.6171875 181.58203125 C67.54920487 184.96033281 69.64053648 186.16029378 73 188 C73 188.33 73 188.66 73 189 C48.91 189 24.82 189 0 189 C0 126.63 0 64.26 0 0 Z " fill="#FEFEFE" transform="translate(0,0)"/>
<path d="M0 0 C0.04691287 2.67403376 0.04688872 5.32734281 0 8 C-0.020625 9.216875 -0.04125 10.43375 -0.0625 11.6875 C-1.23005302 15.812854 -2.81844208 16.88629538 -6.30859375 19.15234375 C-8 20 -8 20 -10 20 C-9.54781055 23.07488825 -8.86310039 25.26832323 -7.4375 28.0625 C-6 31 -6 31 -6 35 C-5.34 35 -4.68 35 -4 35 C-3.62101562 34.12021484 -3.62101562 34.12021484 -3.234375 33.22265625 C-0.15690133 27.68125588 6.12765697 23.11404349 12 21 C20.56359876 19.52119959 20.56359876 19.52119959 25 21 C24.7311904 27.4514304 22.57611776 31.44240903 18 36 C11.7561721 40.69874506 3.98487412 45 -4 45 C-3.7834375 45.79664063 -3.566875 46.59328125 -3.34375 47.4140625 C-3.0653125 48.47367188 -2.786875 49.53328125 -2.5 50.625 C-2.2215625 51.66914062 -1.943125 52.71328125 -1.65625 53.7890625 C-1.00881404 56.95687418 -0.8838708 59.77741467 -1 63 C-2.0828125 61.88625 -2.0828125 61.88625 -3.1875 60.75 C-5.90711047 57.98732731 -5.90711047 57.98732731 -8.8125 55.8125 C-9.534375 55.214375 -10.25625 54.61625 -11 54 C-11 53.34 -11 52.68 -11 52 C-11.78375 51.9175 -12.5675 51.835 -13.375 51.75 C-17.20503326 50.95757933 -20.40231317 49.64627226 -23.94921875 48.03515625 C-42.0457679 41.89484188 -63.72574022 42.95732844 -81 51 C-86.77193183 54.19417587 -91.56176188 58.14567705 -96 63 C-96.99 63.99 -96.99 63.99 -98 65 C-97.33644956 58.25390382 -96.28134207 51.65551466 -95 45 C-96.299375 45.061875 -97.59875 45.12375 -98.9375 45.1875 C-107.47678957 45.13396213 -113.13286 42.46548655 -119.37109375 36.71875 C-121.44698254 34.52836374 -122.84358377 32.6430445 -123.5625 29.6875 C-122.65297512 25.34199222 -119.56176199 23.41092683 -116 21 C-110.38557287 18.1275024 -104.15520276 18.82072225 -98 19 C-98.2165625 18.33613281 -98.433125 17.67226563 -98.65625 16.98828125 C-98.9346875 16.10527344 -99.213125 15.22226563 -99.5 14.3125 C-99.7784375 13.44238281 -100.056875 12.57226562 -100.34375 11.67578125 C-100.99850805 9.00608323 -101.11831495 6.73603316 -101 4 C-95.71750169 5.42770225 -91.35395854 7.98871678 -86.68359375 10.7578125 C-83.77084892 12.10606993 -82.16214929 12.46426335 -79 12 C-77.01844971 10.86372583 -77.01844971 10.86372583 -75.25 9.25 C-65.45489889 1.41762237 -55.26301067 0.26207266 -43 1 C-33.61374034 2.65104568 -25.7232003 7.65316902 -18 13 C-16.89591797 12.09507813 -16.89591797 12.09507813 -15.76953125 11.171875 C-14.79371094 10.37265625 -13.81789063 9.5734375 -12.8125 8.75 C-11.84957031 7.96109375 -10.88664062 7.1721875 -9.89453125 6.359375 C-8.93933594 5.58078125 -7.98414063 4.8021875 -7 4 C-6.09636719 3.24203125 -5.19273437 2.4840625 -4.26171875 1.703125 C-2 -0 -2 -0 0 0 Z " fill="#FCF0E5" transform="translate(147,0)"/>
<path d="M0 0 C1.5625 1.1875 1.5625 1.1875 2.5625 4.1875 C3.5525 4.1875 4.5425 4.1875 5.5625 4.1875 C7.67545256 7.35692884 7.81500929 8.18379953 7.75 11.8125 C7.74355469 12.60914062 7.73710938 13.40578125 7.73046875 14.2265625 C7.5625 16.1875 7.5625 16.1875 6.5625 17.1875 C6.46376184 19.18549572 6.43278201 21.18707158 6.4375 23.1875 C6.43492188 24.280625 6.43234375 25.37375 6.4296875 26.5 C6.25702245 29.10580354 6.25702245 29.10580354 7.5625 30.1875 C9.41141946 30.42113881 11.26738031 30.60053635 13.125 30.75 C14.13691406 30.83378906 15.14882812 30.91757813 16.19140625 31.00390625 C17.36509766 31.09478516 17.36509766 31.09478516 18.5625 31.1875 C12.93734706 37.37693161 4.50920891 38.92664431 -3.4375 40.1875 C0.20380104 41.52903196 3.61509986 42.33821233 7.4375 42.875 C13.28904697 43.97491484 16.47012553 47.05817406 20.5625 51.1875 C24.7649162 55.07473499 28.05049229 56.06641369 33.5625 57.1875 C33.1804468 64.44651072 29.02268614 70.89505383 23.8125 75.75 C20.48480332 77.87602844 18.6766962 78.32073728 14.74902344 78.36450195 C13.7474823 78.37733719 12.74594116 78.39017242 11.71405029 78.40339661 C10.62763245 78.41078354 9.5412146 78.41817047 8.421875 78.42578125 C6.74946747 78.43788887 6.74946747 78.43788887 5.04327393 78.45024109 C2.67941853 78.46409059 0.31554306 78.47480885 -2.04833984 78.48266602 C-5.65891604 78.49986385 -9.26857325 78.54374186 -12.87890625 78.58789062 C-15.17447243 78.59801865 -17.4700464 78.60653441 -19.765625 78.61328125 C-20.84394592 78.63078934 -21.92226685 78.64829742 -23.03326416 78.66633606 C-29.17509845 78.64861841 -32.7705344 78.30204734 -37.4375 74.1875 C-39.82489239 71.60115825 -41.2618616 69.94274513 -42.0625 66.5 C-43.18849655 64.00227638 -43.18849655 64.00227638 -45.5 63.60546875 C-47.25360822 63.31943814 -49.00894981 63.04389129 -50.765625 62.77734375 C-54.94717801 61.85422313 -58.01808958 59.67720897 -61.4375 57.1875 C-62.2625 56.630625 -63.0875 56.07375 -63.9375 55.5 C-64.4325 55.066875 -64.9275 54.63375 -65.4375 54.1875 C-65.4375 53.5275 -65.4375 52.8675 -65.4375 52.1875 C-66.2728125 52.0946875 -66.2728125 52.0946875 -67.125 52 C-70.9795422 50.64570139 -73.49170812 47.76273268 -75.5703125 44.30078125 C-76.53793561 41.94274476 -76.70489905 40.22776152 -76.6875 37.6875 C-76.69265625 36.9346875 -76.6978125 36.181875 -76.703125 35.40625 C-76.41000404 32.9578279 -75.65566769 31.31445946 -74.4375 29.1875 C-72.3125 29.1875 -72.3125 29.1875 -69.4375 30.1875 C-66.66407454 33.20642005 -64.2722004 36.5180992 -62.4375 40.1875 C-62.5465872 42.10513816 -62.67429841 44.02173999 -62.8125 45.9375 C-62.86089659 50.30375888 -62.86089659 50.30375888 -61.234375 54.2421875 C-56.71352964 58.48840206 -51.45032548 59.48580206 -45.4375 60.1875 C-45.71464844 59.23488281 -45.99179687 58.28226563 -46.27734375 57.30078125 C-46.63957031 56.04652344 -47.00179687 54.79226562 -47.375 53.5 C-47.73464844 52.25863281 -48.09429687 51.01726562 -48.46484375 49.73828125 C-49.91944615 44.42810622 -50.55579161 39.89836955 -50.5 34.375 C-50.49097656 33.21355469 -50.48195313 32.05210937 -50.47265625 30.85546875 C-50.46105469 29.97503906 -50.44945313 29.09460938 -50.4375 28.1875 C-49.82003906 28.4040625 -49.20257813 28.620625 -48.56640625 28.84375 C-47.71949219 29.1221875 -46.87257813 29.400625 -46 29.6875 C-45.17628906 29.9659375 -44.35257813 30.244375 -43.50390625 30.53125 C-39.45186746 31.39843792 -35.56410458 31.3102243 -31.4375 31.1875 C-31.35663624 28.24945004 -31.2970717 25.31361925 -31.25 22.375 C-31.22486328 21.54162109 -31.19972656 20.70824219 -31.17382812 19.84960938 C-31.15932617 18.64594727 -31.15932617 18.64594727 -31.14453125 17.41796875 C-31.12096558 16.31038208 -31.12096558 16.31038208 -31.09692383 15.18041992 C-31.52675833 12.66519478 -32.51213062 11.79308484 -34.4375 10.1875 C-33.7775 8.8675 -33.1175 7.5475 -32.4375 6.1875 C-27.88944365 6.00914485 -24.5580746 6.18964565 -20.4375 8.1875 C-19.715625 7.259375 -18.99375 6.33125 -18.25 5.375 C-13.14678644 -0.65477468 -7.74680072 -2.58226691 0 0 Z " fill="#FDF1E6" transform="translate(104.4375,110.8125)"/>
<path d="M0 0 C3.37470504 -0.11689626 6.7488843 -0.18747934 10.125 -0.25 C11.07632813 -0.28351563 12.02765625 -0.31703125 13.0078125 -0.3515625 C18.86349168 -0.43289138 22.43993893 -0.07663687 27 4 C30.95677467 8.75024553 31.62906251 14.23318936 31.38671875 20.25 C30.57262783 26.03909096 28.6117048 30.46504305 24.375 34.5 C21.02327856 36.6168767 19.3108536 37.11872648 15.375 37.0625 C14.14910156 37.04896484 14.14910156 37.04896484 12.8984375 37.03515625 C12.27195312 37.02355469 11.64546875 37.01195312 11 37 C11.144375 37.67546875 11.28875 38.3509375 11.4375 39.046875 C11.623125 39.93890625 11.80875 40.8309375 12 41.75 C12.185625 42.63171875 12.37125 43.5134375 12.5625 44.421875 C13 47 13 47 13 51 C19.02900687 50.48758893 25.02004643 49.930215 31 49 C31.53203514 58.65545261 30.05909324 67.82272027 27 77 C20.50321816 77.1047868 17.56053844 76.08160993 12.75 71.625 C11.96109375 70.83351563 11.1721875 70.04203125 10.359375 69.2265625 C6.32441387 65.41873494 2.91312017 63.72190734 -2.5625 62.9375 C-6.11343259 62.4203739 -8.86716253 61.77650313 -12 60 C-12 59.67 -12 59.34 -12 59 C-11.0821875 58.82984375 -10.164375 58.6596875 -9.21875 58.484375 C-2.18648176 57.09564976 3.78837125 55.60274467 10 52 C9.30132812 51.95101562 8.60265625 51.90203125 7.8828125 51.8515625 C6.97273438 51.77679688 6.06265625 51.70203125 5.125 51.625 C4.22007813 51.55539063 3.31515625 51.48578125 2.3828125 51.4140625 C0 51 0 51 -2 49 C-2.23046875 46.21484375 -2.23046875 46.21484375 -2.1875 42.9375 C-2.18105469 41.85339844 -2.17460938 40.76929688 -2.16796875 39.65234375 C-2 37 -2 37 -1 36 C-0.83996512 33.33573315 -0.74057111 30.69439572 -0.68359375 28.02734375 C-0.6524221 26.83087975 -0.6524221 26.83087975 -0.62062073 25.61024475 C-0.55503842 23.05275389 -0.49620033 20.4951572 -0.4375 17.9375 C-0.39432301 16.20767118 -0.35070899 14.47785321 -0.30664062 12.74804688 C-0.19934828 8.4988074 -0.09810574 4.2494611 0 0 Z " fill="#344452" transform="translate(112,91)"/>
<path d="M0 0 C1.89003935 0.41727646 3.76688001 0.89445975 5.63671875 1.39453125 C13.05792706 3.17704157 20.20522933 3.54758698 27.8125 3.6875 C29.72772461 3.73874023 29.72772461 3.73874023 31.68164062 3.79101562 C34.78747427 3.87244198 37.89371949 3.93791721 41 4 C41 9.28 41 14.56 41 20 C40.01 19.01 39.02 18.02 38 17 C37.01 17 36.02 17 35 17 C34.34 16.34 33.68 15.68 33 15 C33.33 14.67 33.66 14.34 34 14 C30.25389169 12.75129723 26.88323121 12.35755366 23 13 C18.70474319 15.16494799 15.248327 18.49180684 12 22 C11.484375 21.67 10.96875 21.34 10.4375 21 C7.21973488 19.67989123 4.4429472 19.86757895 1 20 C1 21.32 1 22.64 1 24 C1.66 24.66 2.32 25.32 3 26 C3.22705078 27.97119141 3.22705078 27.97119141 3.1953125 30.3515625 C3.18886719 31.20234375 3.18242188 32.053125 3.17578125 32.9296875 C3.15902344 33.81914062 3.14226562 34.70859375 3.125 35.625 C3.11597656 36.5221875 3.10695312 37.419375 3.09765625 38.34375 C3.0740497 40.56276586 3.0411231 42.78125077 3 45 C-4.4302498 45.46878836 -11.47411769 44.95405022 -18 41 C-19.1640625 38.5 -19.1640625 38.5 -20 36 C-20.78375 35.236875 -21.5675 34.47375 -22.375 33.6875 C-26.6092511 29.3524334 -29 25.09836536 -29 19 C-28.41992188 18.90203125 -27.83984375 18.8040625 -27.2421875 18.703125 C-19.70796297 17.26093021 -15.22108225 14.74349779 -10.4296875 8.58984375 C-8.15127153 6.05619539 -5.43241932 4.17622511 -2.671875 2.19921875 C-1.05095196 1.10509842 -1.05095196 1.10509842 0 0 Z " fill="#FCF0E3" transform="translate(71,98)"/>
<path d="M0 0 C1.5625 1.1875 1.5625 1.1875 2.5625 4.1875 C3.5525 4.1875 4.5425 4.1875 5.5625 4.1875 C7.67545256 7.35692884 7.81500929 8.18379953 7.75 11.8125 C7.74355469 12.60914062 7.73710938 13.40578125 7.73046875 14.2265625 C7.5625 16.1875 7.5625 16.1875 6.5625 17.1875 C6.46376184 19.18549572 6.43278201 21.18707158 6.4375 23.1875 C6.43492188 24.280625 6.43234375 25.37375 6.4296875 26.5 C6.25702245 29.10580354 6.25702245 29.10580354 7.5625 30.1875 C9.41141946 30.42113881 11.26738031 30.60053635 13.125 30.75 C14.64287109 30.87568359 14.64287109 30.87568359 16.19140625 31.00390625 C16.97386719 31.06449219 17.75632813 31.12507813 18.5625 31.1875 C11.69639311 38.718761 0.30023207 40.05130835 -9.375 40.625 C-16.68988475 40.47309345 -23.03437836 37.10613237 -29.28515625 33.58203125 C-32.09070431 30.46079538 -31.88390183 28.64996104 -31.73046875 24.58398438 C-31.64732422 23.36678711 -31.64732422 23.36678711 -31.5625 22.125 C-31.46801753 20.5098604 -31.38672733 18.89388077 -31.3203125 17.27734375 C-31.27277832 16.56441162 -31.22524414 15.85147949 -31.17626953 15.11694336 C-31.51595424 12.60803842 -32.53247054 11.77564772 -34.4375 10.1875 C-33.7775 8.8675 -33.1175 7.5475 -32.4375 6.1875 C-27.88944365 6.00914485 -24.5580746 6.18964565 -20.4375 8.1875 C-19.715625 7.259375 -18.99375 6.33125 -18.25 5.375 C-13.14678644 -0.65477468 -7.74680072 -2.58226691 0 0 Z " fill="#F9D12C" transform="translate(104.4375,110.8125)"/>
<path d="M0 0 C5.16428887 4.03364574 9.54735919 8.38471604 13 14 C13 14.66 13 15.32 13 16 C13.66 16 14.32 16 15 16 C15.19335938 15.31292969 15.38671875 14.62585938 15.5859375 13.91796875 C15.84632813 13.01691406 16.10671875 12.11585937 16.375 11.1875 C16.63023437 10.29417969 16.88546875 9.40085937 17.1484375 8.48046875 C18 6 18 6 20 3 C23.125 2.8125 23.125 2.8125 26 3 C29.53152229 10.89498973 32.4656042 18.96292951 35.3125 27.125 C35.67408203 28.1569751 36.03566406 29.1889502 36.40820312 30.25219727 C36.74400391 31.22342529 37.07980469 32.19465332 37.42578125 33.1953125 C37.72911377 34.07203613 38.03244629 34.94875977 38.3449707 35.85205078 C39 38 39 38 39 40 C37.35 40 35.7 40 34 40 C32.68 36.7 31.36 33.4 30 30 C25.05 30 20.1 30 15 30 C14.4740625 32.536875 14.4740625 32.536875 13.9375 35.125 C12.82815992 39.34263595 11.99483575 41.47720096 8.375 43.9375 C5.63556161 45.88105945 5.07423818 46.66743011 4.32421875 50.02734375 C4.08926439 53.03265548 3.96586595 55.98645112 4 59 C3.67 59 3.34 59 3 59 C3 56.69 3 54.38 3 52 C2.071875 52.33 1.14375 52.66 0.1875 53 C-4.80904873 54.45989695 -9.8433358 54.16784802 -15 54 C-15.33820166 52.4176994 -15.67035939 50.83410625 -16 49.25 C-16.185625 48.36828125 -16.37125 47.4865625 -16.5625 46.578125 C-17 44 -17 44 -17 40 C-16.41992188 39.97421875 -15.83984375 39.9484375 -15.2421875 39.921875 C-9.80804046 39.52731647 -6.12929316 38.84120294 -2 35 C2.11417484 28.83514611 3.08872596 22.26884685 2 15 C0.16361517 9.59298732 0.16361517 9.59298732 -4 6 C-3.34 4.68 -2.68 3.36 -2 2 C-1.34 2 -0.68 2 0 2 C0 1.34 0 0.68 0 0 Z " fill="#FBF1E6" transform="translate(140,88)"/>
<path d="M0 0 C0.0338264 1.92810454 0.05732333 3.85705275 0.0234375 5.78515625 C0.00327214 7.6907823 0.08555336 9.59699601 0.1875 11.5 C-1.79964639 17.35685251 -6.92255939 19.81361162 -12 23 C-12.70769531 23.44859375 -13.41539062 23.8971875 -14.14453125 24.359375 C-19.93144687 27.83908896 -25.31974738 28.79123128 -32 28 C-36.38589549 26.55256729 -38.85278927 24.4720977 -41.125 20.5 C-44.11754859 15.7802086 -48.82414033 15.32000228 -53.95703125 13.95703125 C-58.03490343 12.67451689 -59.55579761 11.45559648 -62 8 C-63.3125 5.1875 -63.3125 5.1875 -64 3 C-54.11823988 -0.76448004 -42.66387815 -0.1206384 -33 4 C-27.72522153 6.57306267 -22.81994225 9.6631169 -18 13 C-16.89591797 12.09507813 -16.89591797 12.09507813 -15.76953125 11.171875 C-14.79371094 10.37265625 -13.81789062 9.5734375 -12.8125 8.75 C-11.84957031 7.96109375 -10.88664062 7.1721875 -9.89453125 6.359375 C-8.93933594 5.58078125 -7.98414063 4.8021875 -7 4 C-6.09636719 3.24203125 -5.19273437 2.4840625 -4.26171875 1.703125 C-2 -0 -2 -0 0 0 Z " fill="#32332D" transform="translate(147,0)"/>
<path d="M0 0 C3.691875 -0.0825 7.38375 -0.165 11.1875 -0.25 C12.92036255 -0.30462402 12.92036255 -0.30462402 14.68823242 -0.36035156 C22.2568598 -0.44241065 22.2568598 -0.44241065 26.17578125 1.890625 C29.38308398 5.59928341 29.32452683 8.13209754 29 13 C28.443125 14.03125 27.88625 15.0625 27.3125 16.125 C26.6628125 17.548125 26.6628125 17.548125 26 19 C26.680625 20.11568359 26.680625 20.11568359 27.375 21.25390625 C29.34436387 24.58194182 29.49362411 26.97375732 29.6875 30.8125 C29.78611328 32.55466797 29.78611328 32.55466797 29.88671875 34.33203125 C29.92410156 35.21246094 29.96148437 36.09289062 30 37 C28.02 37 26.04 37 24 37 C22.71385057 33.14155171 22.62828672 29.44158462 22.37890625 25.3984375 C22.25386719 24.60695313 22.12882812 23.81546875 22 23 C18.95887002 21.47943501 15.71802203 21.6258839 12.375 21.4375 C9.94125 21.293125 7.5075 21.14875 5 21 C5 26.28 5 31.56 5 37 C3.35 37 1.7 37 0 37 C0 24.79 0 12.58 0 0 Z " fill="#475764" transform="translate(198,91)"/>
<path d="M0 0 C3.526875 -0.061875 7.05375 -0.12375 10.6875 -0.1875 C12.342052 -0.22846802 12.342052 -0.22846802 14.0300293 -0.27026367 C23.02118136 -0.34674562 23.02118136 -0.34674562 27 3 C29.3941161 5.3941161 29.29598923 6.03786311 29.3125 9.3125 C29.24152682 13.31280631 28.49933025 15.77169843 26 19 C26.48210937 19.53367187 26.96421875 20.06734375 27.4609375 20.6171875 C29.37319649 23.57779152 29.46166694 25.62623393 29.625 29.125 C29.72475434 33.21558923 29.72475434 33.21558923 31 37 C28.69 37 26.38 37 24 37 C23.96261719 36.08476563 23.92523438 35.16953125 23.88671875 34.2265625 C23.82097656 33.03804687 23.75523437 31.84953125 23.6875 30.625 C23.62949219 29.44164063 23.57148438 28.25828125 23.51171875 27.0390625 C23.34285156 26.03617188 23.17398437 25.03328125 23 24 C19.39501281 21.5966752 16.48872908 21.56286576 12.3125 21.375 C9.899375 21.25125 7.48625 21.1275 5 21 C5 26.28 5 31.56 5 37 C3.35 37 1.7 37 0 37 C0 24.79 0 12.58 0 0 Z " fill="#2F4150" transform="translate(332,91)"/>
<path d="M0 0 C0.53203514 9.65545261 -0.94090676 18.82272027 -4 28 C-10.49678184 28.1047868 -13.43946156 27.08160993 -18.25 22.625 C-19.03890625 21.83351562 -19.8278125 21.04203125 -20.640625 20.2265625 C-24.67558613 16.41873494 -28.08687983 14.72190734 -33.5625 13.9375 C-37.11343259 13.4203739 -39.86716253 12.77650313 -43 11 C-43 10.67 -43 10.34 -43 10 C-42.0821875 9.82984375 -41.164375 9.6596875 -40.21875 9.484375 C-32.31346227 8.06765208 -32.31346227 8.06765208 -25 4.9375 C-20.35925649 2.2885353 -15.30732831 1.99987473 -10.07421875 1.39453125 C-6.45152287 0.92961094 -3.71273804 0 0 0 Z " fill="#31332C" transform="translate(143,140)"/>
<path d="M0 0 C14 0 14 0 17.25 2.25 C20.93205033 8.03607909 21.69416379 12.1451326 21 19 C19.14770692 24.26441191 17.61540377 25.30767698 13 29 C8.71 29 4.42 29 0 29 C0 19.43 0 9.86 0 0 Z " fill="#FAEFE3" transform="translate(117,95)"/>
<path d="M0 0 C1.4540625 0.0309375 1.4540625 0.0309375 2.9375 0.0625 C6.46902229 7.95748973 9.4031042 16.02542951 12.25 24.1875 C12.61158203 25.2194751 12.97316406 26.2514502 13.34570312 27.31469727 C13.68150391 28.28592529 14.01730469 29.25715332 14.36328125 30.2578125 C14.81828003 31.57289795 14.81828003 31.57289795 15.2824707 32.91455078 C15.9375 35.0625 15.9375 35.0625 15.9375 37.0625 C14.2875 37.0625 12.6375 37.0625 10.9375 37.0625 C9.6175 33.7625 8.2975 30.4625 6.9375 27.0625 C1.9875 27.0625 -2.9625 27.0625 -8.0625 27.0625 C-9.3825 30.3625 -10.7025 33.6625 -12.0625 37.0625 C-13.7125 37.0625 -15.3625 37.0625 -17.0625 37.0625 C-14.82429964 29.01990004 -11.95812573 21.27789363 -8.9375 13.5 C-8.48246094 12.31341797 -8.02742187 11.12683594 -7.55859375 9.90429688 C-3.76275477 0.07679091 -3.76275477 0.07679091 0 0 Z " fill="#354655" transform="translate(163.0625,90.9375)"/>
<path d="M0 0 C4.62675657 1.3922459 8.64686231 3.29520984 12.875 5.625 C14.02742188 6.25664062 15.17984375 6.88828125 16.3671875 7.5390625 C17.67042969 8.26222656 17.67042969 8.26222656 19 9 C17.30582336 13.60408189 15.32257943 16.42822711 12 20 C11.34 20 10.68 20 10 20 C9.773125 20.7425 9.54625 21.485 9.3125 22.25 C7.66294513 25.70621021 6.34240397 27.11081515 3 29 C-0.8482826 29.11274265 -4.35777388 28.21407537 -8 27 C-10.39490986 26.93029948 -12.79167691 26.91551997 -15.1875 26.9375 C-16.45980469 26.94652344 -17.73210938 26.95554687 -19.04296875 26.96484375 C-20.01878906 26.97644531 -20.99460937 26.98804687 -22 27 C-21.45477737 23.17061284 -21.17370207 22.17370207 -18.3125 19.3125 C-11.67419953 14.34548929 -4.98681763 14.76737424 3 15 C2.7834375 14.33613281 2.566875 13.67226563 2.34375 12.98828125 C2.0653125 12.10527344 1.786875 11.22226563 1.5 10.3125 C1.2215625 9.44238281 0.943125 8.57226562 0.65625 7.67578125 C0.00149195 5.00608323 -0.11831495 2.73603316 0 0 Z " fill="#34352F" transform="translate(46,4)"/>
<path d="M0 0 C3.320625 -0.12375 6.64125 -0.2475 10.0625 -0.375 C11.09511963 -0.42962402 12.12773926 -0.48424805 13.19165039 -0.54052734 C18.07972433 -0.62822694 21.22666901 -0.37911135 25.0625 2.8203125 C29.53407795 7.18419086 31.1411898 11.82741072 31.375 18 C31.14722115 24.82301189 28.81372954 30.04469018 24 35 C19.2717356 37.64307236 14.43832721 37.22602043 9.1875 37.125 C6.155625 37.08375 3.12375 37.0425 0 37 C0 24.79 0 12.58 0 0 Z M5 4 C5 13.57 5 23.14 5 33 C16.25683946 34.02899151 16.25683946 34.02899151 22 30 C25.8678011 25.10587449 25.54556393 20.35028902 25.42578125 14.3359375 C24.82243069 9.60876887 23.65448475 7.97458061 20 5 C15.62967968 3.36754447 15.62967968 3.36754447 5 4 Z " fill="#304150" transform="translate(281,91)"/>
<path d="M0 0 C0.144375 1.134375 0.28875 2.26875 0.4375 3.4375 C0.61171478 6.80777201 0.61171478 6.80777201 2 8 C3.84891946 8.23363881 5.70488031 8.41303635 7.5625 8.5625 C8.57441406 8.64628906 9.58632812 8.73007813 10.62890625 8.81640625 C11.41136719 8.87699219 12.19382813 8.93757812 13 9 C6.13389311 16.531261 -5.26226793 17.86380835 -14.9375 18.4375 C-21.90970629 18.29247811 -29.22305828 15.56475016 -34.3515625 10.828125 C-34.89554687 10.22484375 -35.43953125 9.6215625 -36 9 C-30.555 8.505 -30.555 8.505 -25 8 C-24.34 5.69 -23.68 3.38 -23 1 C-21.21142578 1.01740234 -21.21142578 1.01740234 -19.38671875 1.03515625 C-17.82031406 1.04453592 -16.25390769 1.05363593 -14.6875 1.0625 C-13.50897461 1.07506836 -13.50897461 1.07506836 -12.30664062 1.08789062 C-11.1706543 1.09272461 -11.1706543 1.09272461 -10.01171875 1.09765625 C-8.96697388 1.10551147 -8.96697388 1.10551147 -7.90112305 1.11352539 C-5.09018708 0.9456706 -2.88241142 0 0 0 Z " fill="#F8D028" transform="translate(110,133)"/>
<path d="M0 0 C0.78439453 -0.00386719 1.56878906 -0.00773438 2.37695312 -0.01171875 C3.19228516 -0.00011719 4.00761719 0.01148438 4.84765625 0.0234375 C6.06485352 0.00603516 6.06485352 0.00603516 7.30664062 -0.01171875 C10.71439301 0.00505444 13.29426714 0.12672172 16.43359375 1.51171875 C18.58772066 4.26421425 18.48572747 6.50658384 18.59765625 9.9609375 C18.6149362 14.33974714 18.6149362 14.33974714 19.91015625 18.3984375 C10.34015625 18.3984375 0.77015625 18.3984375 -9.08984375 18.3984375 C-8.75984375 17.7384375 -8.42984375 17.0784375 -8.08984375 16.3984375 C-7.85185874 13.08868302 -7.70716489 9.78008015 -7.56640625 6.46484375 C-6.82004506 1.66243774 -4.80212687 0.02279233 0 0 Z " fill="#FEFEFD" transform="translate(93.08984375,170.6015625)"/>
<path d="M0 0 C8.91 0 17.82 0 27 0 C27 1.32 27 2.64 27 4 C19.74 4 12.48 4 5 4 C5 7.96 5 11.92 5 16 C11.6 16 18.2 16 25 16 C25 17.32 25 18.64 25 20 C18.4 20 11.8 20 5 20 C5 24.29 5 28.58 5 33 C12.26 33 19.52 33 27 33 C27 34.32 27 35.64 27 37 C18.09 37 9.18 37 0 37 C0 24.79 0 12.58 0 0 Z " fill="#2E404F" transform="translate(369,91)"/>
<path d="M0 0 C-0.26865086 6.4476207 -2.42098977 10.44868539 -7 15 C-14.02964288 20.23754643 -21.09964471 23.43416367 -30 23 C-30.89733247 19.91541963 -31.35809518 18.12944051 -31 15 C-26.68846804 7.64939394 -18.70943146 1.54189893 -10.46875 -0.68359375 C-6.80451346 -1.153219 -3.64399474 -0.5558636 0 0 Z " fill="#FEB5B8" transform="translate(172,21)"/>
<path d="M0 0 C3.96374449 1.94710256 6.81807962 4.12103044 9 8 C9 9.32 9 10.64 9 12 C6.6875 12.3125 6.6875 12.3125 4 12 C2.4375 9.625 2.4375 9.625 1 7 C-2.42094119 4.43429411 -5.84773484 4.56291946 -10 5 C-13.52694487 7.19454348 -15.47930334 9.16461461 -17 13 C-17.68871683 19.42206079 -17.86477812 25.56068265 -14 31 C-9.78299686 33.81133543 -5.95377464 33.80529341 -1 33 C1.89057679 30.39848089 3.43040474 27.53158934 5 24 C6.65 24 8.3 24 10 24 C9.4636738 28.55877267 7.8779969 31.44037226 5 35 C0.1650914 38.67453053 -3.57090691 39.66928936 -9.640625 39.375 C-14.78723839 38.55699522 -17.80776839 35.60642042 -20.875 31.625 C-24.51006776 25.37502867 -23.96267574 17.6082183 -22.5234375 10.71875 C-18.79658813 0.48113969 -9.60754991 -0.91679888 0 0 Z " fill="#364756" transform="translate(424,90)"/>
<path d="M0 0 C3.77573823 1.08951651 6.97776808 3.07969776 10.3125 5.125 C11.19550781 5.66382812 12.07851562 6.20265625 12.98828125 6.7578125 C13.98408203 7.37269531 13.98408203 7.37269531 15 8 C13.54598998 11.57248699 11.7309091 13.20351555 8.625 15.4375 C5.90116562 17.46302652 3.96460034 19.04581132 1.875 21.75 C-0.70218146 24.84261775 -3.20673465 25.75737859 -7 27 C-10.4375 27.1875 -10.4375 27.1875 -13 27 C-13.68100419 17.76860992 -11.80143651 12.21729229 -5.9375 5.125 C-4.00986844 2.92637514 -2.49205352 1.66136902 0 0 Z " fill="#32342E" transform="translate(55,90)"/>
<path d="M0 0 C0.33 0 0.66 0 1 0 C1.33 1.98 1.66 3.96 2 6 C2.99 5.67 3.98 5.34 5 5 C19.58799391 3.81398423 19.58799391 3.81398423 23.9375 7.3125 C26 10 26 10 26 13 C24.2984375 12.9071875 24.2984375 12.9071875 22.5625 12.8125 C13.37741749 12.87718368 6.61434559 16.82395442 0 23 C-0.53882813 23.73347656 -1.07765625 24.46695313 -1.6328125 25.22265625 C-2.08398438 25.80917969 -2.53515625 26.39570312 -3 27 C-3.66 27 -4.32 27 -5 27 C-5.27714844 26.30132812 -5.55429688 25.60265625 -5.83984375 24.8828125 C-6.20207031 23.97273438 -6.56429687 23.06265625 -6.9375 22.125 C-7.29714844 21.22007813 -7.65679687 20.31515625 -8.02734375 19.3828125 C-8.94901262 17.03862333 -8.94901262 17.03862333 -10 15 C-8.80727752 11.42183257 -8.2128987 11.37939862 -5 9.75 C-2.80404904 8.54261673 -2.80404904 8.54261673 -1 7 C0.13478487 3.33054374 0.13478487 3.33054374 0 0 Z " fill="#FDF1E6" transform="translate(146,8)"/>
<path d="M0 0 C2.73828125 -0.39453125 2.73828125 -0.39453125 6 0 C7.75251107 2.15150658 8.92401305 3.90085452 10.1875 6.3125 C12.17845872 9.90869355 13.98097524 13.15865882 17 16 C17.63808594 14.92878906 18.27617187 13.85757813 18.93359375 12.75390625 C19.76815188 11.35672466 20.60279151 9.95959176 21.4375 8.5625 C21.85837891 7.85544922 22.27925781 7.14839844 22.71289062 6.41992188 C25.88671875 1.11328125 25.88671875 1.11328125 27 0 C28.66617115 -0.04063832 30.33388095 -0.042721 32 0 C30.94251376 3.16037315 29.57155175 5.73086548 27.65234375 8.42578125 C20.88649825 18.02125038 18.4690968 25.25767045 19 37 C17.35 37 15.7 37 14 37 C14.11794922 35.61554688 14.11794922 35.61554688 14.23828125 34.203125 C14.48397648 21.11662104 8.7786065 13.01582691 1.17749023 2.69555664 C0 1 0 1 0 0 Z " fill="#344654" transform="translate(231,91)"/>
<path d="M0 0 C19.14 0 38.28 0 58 0 C54.45235012 3.54764988 51.0631491 6.68396398 47.1875 9.8125 C46.21167969 10.60269531 45.23585937 11.39289062 44.23046875 12.20703125 C43.49441406 12.79871094 42.75835937 13.39039063 42 14 C41.31035156 13.54109375 40.62070313 13.0821875 39.91015625 12.609375 C29.4347782 5.7694848 21.32398435 1.79069545 8.6875 1.9375 C7.57665039 1.94426758 7.57665039 1.94426758 6.44335938 1.95117188 C4.62887101 1.96287825 2.81442466 1.98081102 1 2 C0.67 1.34 0.34 0.68 0 0 Z " fill="#F9F8F8" transform="translate(87,0)"/>
<path d="M0 0 C9.9 0 19.8 0 30 0 C30 1.32 30 2.64 30 4 C25.71 4 21.42 4 17 4 C17 14.89 17 25.78 17 37 C15.35 37 13.7 37 12 37 C12 26.11 12 15.22 12 4 C8.04 4 4.08 4 0 4 C0 2.68 0 1.36 0 0 Z " fill="#2F4150" transform="translate(437,91)"/>
<path d="M0 0 C7.59 0 15.18 0 23 0 C22.67 1.32 22.34 2.64 22 4 C16.06 4 10.12 4 4 4 C4 8.29 4 12.58 4 17 C9.28 17 14.56 17 20 17 C19.67 17.99 19.34 18.98 19 20 C14.38 20 9.76 20 5 20 C5 25.61 5 31.22 5 37 C3.35 37 1.7 37 0 37 C0 24.79 0 12.58 0 0 Z " fill="#2F4150" transform="translate(198,91)"/>
<path d="M0 0 C0 0.66 0 1.32 0 2 C0.61875 2.28875 1.2375 2.5775 1.875 2.875 C4 4 4 4 6 6 C6.1875 8.5625 6.1875 8.5625 6 11 C4.47728009 12.52271991 3.12064841 12.20581982 1 12.25 C-7.45252554 12.10265011 -13.1379781 9.44509857 -19.37109375 3.81640625 C-21.02521973 1.97187728 -22.01123743 0.26073853 -23 -2 C-15.21094429 -4.5963519 -7.40708949 -3.07257046 0 0 Z " fill="#FEB6B9" transform="translate(47,33)"/>
<path d="M0 0 C2.60478883 -0.0809313 5.20706653 -0.14045434 7.8125 -0.1875 C8.55048828 -0.21263672 9.28847656 -0.23777344 10.04882812 -0.26367188 C15.49557159 -0.33760957 15.49557159 -0.33760957 17.984375 1.328125 C19.61254293 4.0083399 19.43681718 5.94227976 19 9 C17.45703125 11.17578125 17.45703125 11.17578125 15 13 C12.26317029 13.2911521 9.96059961 13.38322418 7.25 13.25 C6.55261719 13.23195313 5.85523438 13.21390625 5.13671875 13.1953125 C3.42388461 13.14838554 1.71176176 13.07664605 0 13 C0 8.71 0 4.42 0 0 Z " fill="#F6F7F7" transform="translate(337,95)"/>
<path d="M0 0 C2.41734542 -0.08117951 4.83194949 -0.14056926 7.25 -0.1875 C7.93191406 -0.21263672 8.61382812 -0.23777344 9.31640625 -0.26367188 C12.46586544 -0.30953779 14.66012938 -0.18317351 17.45703125 1.32421875 C19 3 19 3 19.4375 6 C19 9 19 9 17.984375 10.67578125 C14.83095117 12.78013298 11.46427304 12.31188354 7.8125 12.1875 C6.68811523 12.16719727 6.68811523 12.16719727 5.54101562 12.14648438 C3.69370233 12.11118539 1.84675934 12.05737917 0 12 C0 8.04 0 4.08 0 0 Z " fill="#FAFAFB" transform="translate(203,95)"/>
<path d="M0 0 C2.46800047 1.15173355 4.04783565 2.04783565 6 4 C6.66524275 8.39751379 6.45909208 12.06268701 4.5 16.0625 C3.7575 17.0215625 3.7575 17.0215625 3 18 C3.48210937 18.53367187 3.96421875 19.06734375 4.4609375 19.6171875 C6.37319649 22.57779152 6.46166694 24.62623393 6.625 28.125 C6.72475434 32.21558923 6.72475434 32.21558923 8 36 C5.69 36 3.38 36 1 36 C0.96261719 35.08476563 0.92523438 34.16953125 0.88671875 33.2265625 C0.82097656 32.03804687 0.75523437 30.84953125 0.6875 29.625 C0.62949219 28.44164063 0.57148438 27.25828125 0.51171875 26.0390625 C0.34285156 25.03617188 0.17398437 24.03328125 0 23 C-3.60178588 20.59880941 -6.50866369 20.56228678 -10.6875 20.375 C-11.38939453 20.33632812 -12.09128906 20.29765625 -12.81445312 20.2578125 C-14.54254655 20.1637666 -16.27123675 20.0808032 -18 20 C-18 19.67 -18 19.34 -18 19 C-17.08476562 18.93941406 -16.16953125 18.87882812 -15.2265625 18.81640625 C-13.44378906 18.69072266 -13.44378906 18.69072266 -11.625 18.5625 C-9.84996094 18.44068359 -9.84996094 18.44068359 -8.0390625 18.31640625 C-5.08481099 18.18915064 -5.08481099 18.18915064 -3 17 C-3 16.34 -3 15.68 -3 15 C-2.505 14.5875 -2.01 14.175 -1.5 13.75 C0.28735627 12.000398 0.28735627 12.000398 0.3125 9 C0.21659125 5.82058486 0.21659125 5.82058486 -2 3 C-1.34 2.01 -0.68 1.02 0 0 Z " fill="#334453" transform="translate(355,92)"/>
<path d="M0 0 C-0.17357583 4.42618358 -0.59090743 6.51931623 -3.5 9.9375 C-6.80551596 12.3292315 -9.78962514 12.72612014 -13.8125 12.48828125 C-17.68492954 11.62389966 -19.36596547 9.96328885 -22 7 C-22.65625 4.32421875 -22.65625 4.32421875 -23 2 C-15.2472493 0.48462814 -7.89957062 -0.27990605 0 0 Z " fill="#FF4C53" transform="translate(110,75)"/>
<path d="M0 0 C1.62580966 0.11398665 3.25067157 0.24155659 4.875 0.375 C5.77992187 0.44460937 6.68484375 0.51421875 7.6171875 0.5859375 C10 1 10 1 12 3 C12.265625 5.75 12.265625 5.75 12.25 9 C12.25515625 10.0725 12.2603125 11.145 12.265625 12.25 C12 15 12 15 10 17 C7.1796875 17.1953125 7.1796875 17.1953125 3.875 17.125 C2.77929688 17.10695312 1.68359375 17.08890625 0.5546875 17.0703125 C-0.28835937 17.04710937 -1.13140625 17.02390625 -2 17 C-1.85899143 14.72886197 -1.71203245 12.45809275 -1.5625 10.1875 C-1.48128906 8.92292969 -1.40007812 7.65835938 -1.31640625 6.35546875 C-1 3 -1 3 0 0 Z " fill="#917B6B" transform="translate(75,125)"/>
<path d="M0 0 C4.62675657 1.3922459 8.64686231 3.29520984 12.875 5.625 C14.02742188 6.25664062 15.17984375 6.88828125 16.3671875 7.5390625 C17.67042969 8.26222656 17.67042969 8.26222656 19 9 C17.30582336 13.60408189 15.32257943 16.42822711 12 20 C11.34 20 10.68 20 10 20 C10 19.34 10 18.68 10 18 C5.545 17.01 5.545 17.01 1 16 C1.66 15.67 2.32 15.34 3 15 C2.7834375 14.33613281 2.566875 13.67226563 2.34375 12.98828125 C1.92609375 11.66376953 1.92609375 11.66376953 1.5 10.3125 C1.2215625 9.44238281 0.943125 8.57226562 0.65625 7.67578125 C0.00149195 5.00608323 -0.11831495 2.73603316 0 0 Z " fill="#8D776B" transform="translate(46,4)"/>
<path d="M0 0 C2.02408755 0.09002398 4.04544287 0.24641038 6.0625 0.4375 C7.71958984 0.59025391 7.71958984 0.59025391 9.41015625 0.74609375 C10.26480469 0.82988281 11.11945313 0.91367188 12 1 C12.33820166 2.5823006 12.67035939 4.16589375 13 5.75 C13.185625 6.63171875 13.37125 7.5134375 13.5625 8.421875 C14 11 14 11 14 15 C15.98 15 17.96 15 20 15 C20 15.33 20 15.66 20 16 C16.8742604 15.89037184 13.74975219 15.75968759 10.625 15.625 C9.73554687 15.5940625 8.84609375 15.563125 7.9296875 15.53125 C7.07890625 15.49257812 6.228125 15.45390625 5.3515625 15.4140625 C4.56604004 15.3826416 3.78051758 15.3512207 2.97119141 15.31884766 C1 15 1 15 -1 13 C-1.23046875 10.21484375 -1.23046875 10.21484375 -1.1875 6.9375 C-1.18105469 5.85339844 -1.17460938 4.76929688 -1.16796875 3.65234375 C-1 1 -1 1 0 0 Z " fill="#917B6E" transform="translate(111,127)"/>
<path d="M0 0 C0.03380356 1.92680267 0.05736005 3.85444942 0.0234375 5.78125 C0.00307393 7.7090016 0.08617397 9.63730548 0.1875 11.5625 C-1.76983183 17.22846056 -6.9145108 19.24361459 -12 22 C-13.00593243 20.8803014 -14.0045849 19.7540588 -15 18.625 C-15.8353125 17.68527344 -15.8353125 17.68527344 -16.6875 16.7265625 C-18 15 -18 15 -18 13 C-16.32464541 11.48015117 -14.58294378 10.03293547 -12.8125 8.625 C-11.84957031 7.85414063 -10.88664063 7.08328125 -9.89453125 6.2890625 C-8.93933594 5.53367187 -7.98414063 4.77828125 -7 4 C-6.09636719 3.24460938 -5.19273437 2.48921875 -4.26171875 1.7109375 C-2 0 -2 0 0 0 Z " fill="#8E796D" transform="translate(147,0)"/>
<path d="M0 0 C1.47906892 -0.02689216 2.95827483 -0.04634621 4.4375 -0.0625 C5.26121094 -0.07410156 6.08492188 -0.08570313 6.93359375 -0.09765625 C9 0 9 0 10 1 C11.85772162 0.91015699 13.71247985 0.75388139 15.5625 0.5625 C16.57441406 0.46066406 17.58632812 0.35882813 18.62890625 0.25390625 C19.41136719 0.17011719 20.19382812 0.08632812 21 0 C21.05399736 1.45792884 21.09279177 2.91642712 21.125 4.375 C21.14820312 5.18710938 21.17140625 5.99921875 21.1953125 6.8359375 C21 9 21 9 19 11 C13.74068123 11.7390546 9.27141026 11.63570513 4.5 9.25 C0.40764331 5.56687898 0.40764331 5.56687898 -1 3 C-0.67 2.01 -0.34 1.02 0 0 Z " fill="#947F74" transform="translate(65,178)"/>
<path d="M0 0 C0.66 0.165 1.32 0.33 2 0.5 C6.77198356 1.29533059 11.35632344 1.54789219 16 0 C18.33299825 -0.03954234 20.66708189 -0.04401732 23 0 C21.56314642 5.02898754 19.05763331 6.95677502 15 10 C12.39820337 11.30089831 10.4030812 11.16840078 7.5 11.1875 C6.5203125 11.20167969 5.540625 11.21585938 4.53125 11.23046875 C2 11 2 11 0 9 C-0.1953125 6.8359375 -0.1953125 6.8359375 -0.125 4.375 C-0.10695313 3.55773437 -0.08890625 2.74046875 -0.0703125 1.8984375 C-0.04710938 1.27195313 -0.02390625 0.64546875 0 0 Z " fill="#968175" transform="translate(111,178)"/>
<path d="M0 0 C1.65 0 3.3 0 5 0 C5 12.21 5 24.42 5 37 C3.35 37 1.7 37 0 37 C0 24.79 0 12.58 0 0 Z " fill="#354654" transform="translate(184,91)"/>
<path d="M0 0 C4.60688304 1.53562768 6.92208252 5.11364442 9.25 9.1875 C10.54539477 14.0452304 10.96946029 19.51629422 9.1171875 24.26171875 C8 26 8 26 5.875 26.75 C4.946875 26.87375 4.946875 26.87375 4 27 C2.50646291 22.51938872 3.14164057 18.12964143 3.35546875 13.4453125 C2.93309831 9.35156825 1.87264664 7.877804 -1 5 C-1.99 4.34 -2.98 3.68 -4 3 C-3.34 3 -2.68 3 -2 3 C-2 2.34 -2 1.68 -2 1 C-1.34 0.67 -0.68 0.34 0 0 Z " fill="#3F4F5D" transform="translate(302,92)"/>
<path d="M0 0 C1.32 0 2.64 0 4 0 C4 12.21 4 24.42 4 37 C2.68 37 1.36 37 0 37 C0 24.79 0 12.58 0 0 Z " fill="#263948" transform="translate(319,91)"/>
<path d="M0 0 C-0.66 0.33 -1.32 0.66 -2 1 C-3.87527294 0.2839867 -5.74933991 -0.43535661 -7.61694336 -1.17114258 C-25.28399341 -7.31596738 -47.18346002 -5.90843329 -64 2 C-67.6113348 4.07158517 -70.81220378 6.33434282 -74 9 C-74.99 9.66 -75.98 10.32 -77 11 C-73.73901068 3.74468882 -67.23934176 0.09566953 -60.12109375 -2.8984375 C-41.02598424 -9.63788792 -18.09112607 -9.65413303 0 0 Z " fill="#F3DBCC" transform="translate(130,49)"/>
<path d="M0 0 C4.62 0 9.24 0 14 0 C14.99 0.99 15.98 1.98 17 3 C15.62708132 3.48509793 14.25153297 3.96275513 12.875 4.4375 C11.72644531 4.83775391 11.72644531 4.83775391 10.5546875 5.24609375 C8 6 8 6 2 7 C1.67 13.93 1.34 20.86 1 28 C4.96 28 8.92 28 13 28 C13 28.33 13 28.66 13 29 C8.71 29 4.42 29 0 29 C0 19.43 0 9.86 0 0 Z " fill="#D5C6B3" transform="translate(117,95)"/>
<path d="M0 0 C0.33 0.66 0.66 1.32 1 2 C0.50628906 2.29390625 0.01257813 2.5878125 -0.49609375 2.890625 C-3.93304308 5.29718107 -5.74659954 6.8683366 -6.6875 11.0703125 C-6.91366737 14.05996236 -7.03395145 17.00257198 -7 20 C-7.33 20 -7.66 20 -8 20 C-8 17.69 -8 15.38 -8 13 C-8.928125 13.33 -9.85625 13.66 -10.8125 14 C-15.80904873 15.45989695 -20.8433358 15.16784802 -26 15 C-25.67 14.01 -25.34 13.02 -25 12 C-23.16180381 11.55747129 -21.32144939 11.12249279 -19.47265625 10.7265625 C-14.6581333 9.31186855 -10.12065649 6.84607733 -6 4 C-5.67 3.01 -5.34 2.02 -5 1 C-3.35 0.67 -1.7 0.34 0 0 Z " fill="#F1DECC" transform="translate(151,127)"/>
<path d="M0 0 C0.66 0.33 1.32 0.66 2 1 C1.67 2.65 1.34 4.3 1 6 C-3.72798461 7.85742252 -7.68485808 8.24255589 -12.75 8.1875 C-14.72226563 8.17783203 -14.72226563 8.17783203 -16.734375 8.16796875 C-20 8 -20 8 -22 7 C-22 5.35 -22 3.7 -22 2 C-21.28714844 2.15984375 -20.57429688 2.3196875 -19.83984375 2.484375 C-12.61662308 3.79588137 -6.42839126 3.79110254 0 0 Z " fill="#FDE582" transform="translate(109,127)"/>
<path d="M0 0 C2 1 2 1 3.0703125 3.6171875 C3.59238281 5.22980469 3.59238281 5.22980469 4.125 6.875 C4.47820312 7.94492188 4.83140625 9.01484375 5.1953125 10.1171875 C6 13 6 13 6 16 C2.37 16 -1.26 16 -5 16 C-3.85388265 10.26941324 -2.47605477 5.28975338 0 0 Z " fill="#E8EAEB" transform="translate(162,97)"/>
<path d="M0 0 C0.33 0 0.66 0 1 0 C1.08636719 0.88042969 1.17273438 1.76085937 1.26171875 2.66796875 C2.02184628 9.86050946 2.02184628 9.86050946 5.3125 16.125 C7.82138876 17.87538751 10.372381 19.43594107 13 21 C14.04496043 22.01746147 15.08630483 23.03864333 16.125 24.0625 C20.46484872 27.94045795 25.36997204 28.40950882 31 29 C31 29.66 31 30.32 31 31 C23.78889557 31.75115671 19.73712961 30.32551081 14 26 C13.175 25.443125 12.35 24.88625 11.5 24.3125 C11.005 23.879375 10.51 23.44625 10 23 C10 22.34 10 21.68 10 21 C9.1646875 20.9071875 9.1646875 20.9071875 8.3125 20.8125 C4.45844408 19.45837225 1.95280708 16.5749148 -0.13671875 13.12109375 C-1.11591435 10.71519686 -1.23509914 8.96266234 -1.1875 6.375 C-1.17783203 5.21097656 -1.17783203 5.21097656 -1.16796875 4.0234375 C-1 2 -1 2 0 0 Z " fill="#E8D7C8" transform="translate(29,142)"/>
<path d="M0 0 C0.4125 0.37511719 0.825 0.75023438 1.25 1.13671875 C8.95073918 7.96081128 15.06521813 11.40992376 25.33984375 13.2265625 C26.21769531 13.48179687 27.09554687 13.73703125 28 14 C28.33 14.99 28.66 15.98 29 17 C21.61285152 17.5768706 14.46627061 16.91793133 8 13 C6.84765625 10.51953125 6.84765625 10.51953125 6 8 C4.35353315 6.31337542 2.68816933 4.64488294 1 3 C0.67 2.01 0.34 1.02 0 0 Z " fill="#F5E4D6" transform="translate(45,126)"/>
<path d="M0 0 C0.76658936 0.20858643 1.53317871 0.41717285 2.32299805 0.63208008 C10.88419104 2.80436146 19.0012435 3.52544326 27.8125 3.6875 C29.72772461 3.73874023 29.72772461 3.73874023 31.68164062 3.79101562 C34.78767235 3.87244717 37.89345892 3.94193081 41 4 C41 4.66 41 5.32 41 6 C31.32518147 10.83740926 12.18301784 6.51634231 2.625 3.375 C1.42875 2.92125 0.2325 2.4675 -1 2 C-0.67 1.34 -0.34 0.68 0 0 Z " fill="#F3DACB" transform="translate(71,98)"/>
<path d="M0 0 C3.6181282 0.24120855 6.38895322 0.93837199 9.75 2.25 C9.75 2.91 9.75 3.57 9.75 4.25 C9.09 4.25 8.43 4.25 7.75 4.25 C8.08 5.9 8.41 7.55 8.75 9.25 C2 9.375 2 9.375 -0.25 8.25 C-0.58 9.24 -0.91 10.23 -1.25 11.25 C-1.683125 10.13625 -1.683125 10.13625 -2.125 9 C-3.07302644 6.68260203 -4.09845911 4.47082885 -5.25 2.25 C-3.25 0.25 -3.25 0.25 0 0 Z " fill="#F8DE78" transform="translate(75.25,116.75)"/>
<path d="M0 0 C4.8274799 1.41292095 8.7162359 3.42974154 13 6 C10.19195732 8.96404505 7.81684226 11.44499019 4 13 C4 13.99 4 14.98 4 16 C3.01 15.67 2.02 15.34 1 15 C1.66 15 2.32 15 3 15 C2.7834375 14.33613281 2.566875 13.67226563 2.34375 12.98828125 C1.92609375 11.66376953 1.92609375 11.66376953 1.5 10.3125 C1.2215625 9.44238281 0.943125 8.57226562 0.65625 7.67578125 C0.00149195 5.00608323 -0.11831495 2.73603316 0 0 Z " fill="#937F74" transform="translate(46,4)"/>
<path d="M0 0 C0.33 0.66 0.66 1.32 1 2 C0.2884375 2.61875 0.2884375 2.61875 -0.4375 3.25 C-2.16266518 5.182185 -2.56584875 6.48192275 -3 9 C-3.66 9 -4.32 9 -5 9 C-5 9.66 -5 10.32 -5 11 C-4.34 11 -3.68 11 -3 11 C-3 12.32 -3 13.64 -3 15 C4.44208352 17.13362486 11.69615448 16.16410238 19 14 C16.7322112 17.4016832 15.80092114 17.83511338 12 19 C4.62411728 19.8267001 -0.881175 19.15776583 -6.875 14.5625 C-8 13 -8 13 -8 9 C-7.34 9 -6.68 9 -6 9 C-5.9071875 7.88625 -5.9071875 7.88625 -5.8125 6.75 C-4.75814862 3.1814261 -3.00090227 2.07754772 0 0 Z " fill="#F8C02E" transform="translate(91,112)"/>
<path d="M0 0 C0.33 0.66 0.66 1.32 1 2 C1.969375 2.28875 2.93875 2.5775 3.9375 2.875 C7 4 7 4 9 8 C6.36 9.65 3.72 11.3 1 13 C-5 6.25 -5 6.25 -5 4 C-3.37373596 2.61767557 -1.7074998 1.28062485 0 0 Z " fill="#927D71" transform="translate(134,9)"/>
<path d="M0 0 C0.79148438 -0.01417969 1.58296875 -0.02835938 2.3984375 -0.04296875 C4.625 0.1875 4.625 0.1875 7.625 2.1875 C6.75 6.0625 6.75 6.0625 5.625 7.1875 C3.6640625 7.35546875 3.6640625 7.35546875 1.25 7.375 C0.45851562 7.38917969 -0.33296875 7.40335937 -1.1484375 7.41796875 C-3.375 7.1875 -3.375 7.1875 -6.375 5.1875 C-5.32003329 0.51550458 -4.81625391 0.03896646 0 0 Z " fill="#FF676E" transform="translate(130.375,63.8125)"/>
<path d="M0 0 C-0.56847656 0.32871094 -1.13695312 0.65742188 -1.72265625 0.99609375 C-7.73840924 4.70195828 -12.4786995 8.7878944 -16 15 C-16.59349196 18.38336285 -16.59349196 18.38336285 -16 21 C-16.99 21 -17.98 21 -19 21 C-19.89832896 17.9119942 -20.3681759 16.13208797 -20 13 C-16.23985824 6.81164681 -7.91657699 -2.76729903 0 0 Z " fill="#FE9A9C" transform="translate(161,23)"/>
<path d="M0 0 C1.9375 0.30078125 1.9375 0.30078125 4.9375 2.30078125 C4.625 4.23828125 4.625 4.23828125 3.9375 6.30078125 C1.18671116 7.21771086 -0.42198913 7.40964208 -3.25 7.36328125 C-5.1371875 7.33234375 -5.1371875 7.33234375 -7.0625 7.30078125 C-7.7225 5.98078125 -8.3825 4.66078125 -9.0625 3.30078125 C-6.65986042 -0.30317812 -3.96639261 -0.02253632 0 0 Z " fill="#FF666C" transform="translate(68.0625,63.69921875)"/>
<path d="M0 0 C0.33 0 0.66 0 1 0 C1 2.31 1 4.62 1 7 C-0.98 7.99 -0.98 7.99 -3 9 C-1.694761 11.61047801 -0.64173426 11.68066423 2.0625 12.625 C2.79597656 12.88539063 3.52945313 13.14578125 4.28515625 13.4140625 C5.13400391 13.70410156 5.13400391 13.70410156 6 14 C6 14.33 6 14.66 6 15 C-1.94119539 15.76850278 -6.63926599 13.7937891 -13 9 C-13 8.67 -13 8.34 -13 8 C-7.555 7.505 -7.555 7.505 -2 7 C-1.34 4.69 -0.68 2.38 0 0 Z " fill="#F1C414" transform="translate(87,134)"/>
<path d="M0 0 C1.65 0 3.3 0 5 0 C4.46744565 4.52671196 2.78440128 7.4200555 0 11 C-2.25 12.375 -2.25 12.375 -4 13 C-4.66 12.34 -5.32 11.68 -6 11 C-4.02 7.37 -2.04 3.74 0 0 Z " fill="#354755" transform="translate(429,114)"/>
<path d="M0 0 C0.75 1.625 0.75 1.625 1 4 C-0.85182291 7.5611979 -2.12683167 9.56341583 -5.75 11.375 C-6.4925 11.58125 -7.235 11.7875 -8 12 C-8.99 11.01 -9.98 10.02 -11 9 C-10.195625 8.38125 -9.39125 7.7625 -8.5625 7.125 C-5.96125481 5.25835959 -5.96125481 5.25835959 -5 3 C-3.35 3 -1.7 3 0 3 C0 2.01 0 1.02 0 0 Z " fill="#364756" transform="translate(309,115)"/>
<path d="M0 0 C2.67857172 0.36196915 4.60980914 0.73987276 6.875 2.25 C8 4 8 4 7.6875 6.6875 C7.460625 7.450625 7.23375 8.21375 7 9 C3.2273236 8.46104623 1.31787009 7.00464642 -1 4 C-0.75 1.75 -0.75 1.75 0 0 Z " fill="#6F3732" transform="translate(77,54)"/>
<path d="M0 0 C-0.35052635 3.15473719 -0.86519076 4.8233534 -2.8125 7.375 C-5 9 -5 9 -7.25 8.75 C-8.11625 8.37875 -8.11625 8.37875 -9 8 C-8.66896829 4.93795671 -8.39949096 3.39949096 -6.1875 1.1875 C-4 0 -4 0 0 0 Z " fill="#773F3A" transform="translate(121,54)"/>
<path d="M0 0 C3.5625 0.125 3.5625 0.125 5.5625 1.125 C4.9025 2.775 4.2425 4.425 3.5625 6.125 C0.9225 6.125 -1.7175 6.125 -4.4375 6.125 C-4.480221 4.45888095 -4.47813832 2.79117115 -4.4375 1.125 C-3.4375 0.125 -3.4375 0.125 0 0 Z " fill="#FDE57D" transform="translate(122.4375,116.875)"/>
<path d="M0 0 C7.31110994 -0.3689719 13.21256822 0.18447274 20 3 C20 3.66 20 4.32 20 5 C20.61875 5.28875 21.2375 5.5775 21.875 5.875 C24 7 24 7 26 9 C26.125 11.625 26.125 11.625 26 14 C25.34 14 24.68 14 24 14 C23.67 13.113125 23.34 12.22625 23 11.3125 C20.36172177 6.94285168 17.71034616 4.9203719 13 3 C8.68947931 2.04813445 4.38954916 1.44832286 0 1 C0 0.67 0 0.34 0 0 Z " fill="#E99194" transform="translate(27,30)"/>
<path d="M0 0 C0.61746094 0.28875 1.23492187 0.5775 1.87109375 0.875 C7.92588775 3.52915627 12.40220409 4.42566425 19 4 C19.33 4.99 19.66 5.98 20 7 C13.53610869 7.36435295 6.7114288 7.48670368 1 4 C0.25390625 1.890625 0.25390625 1.890625 0 0 Z " fill="#EAD4BF" transform="translate(54,136)"/>
<path d="M0 0 C2.4644237 1.09529942 4.10714353 2.10389676 6.0625 4 C10.36701124 6.93073106 14.90715927 7.32214379 20 8 C20 8.66 20 9.32 20 10 C12.91321834 10.73820642 8.56075318 9.46621579 3 5 C1.2734375 3.45703125 1.2734375 3.45703125 0 2 C0 1.34 0 0.68 0 0 Z " fill="#454641" transform="translate(40,163)"/>
<path d="M0 0 C0 0.66 0 1.32 0 2 C-1.98 2.66 -3.96 3.32 -6 4 C-4.02 5.32 -2.04 6.64 0 8 C-3 9 -3 9 -5.04296875 8.22265625 C-5.75066406 7.83980469 -6.45835938 7.45695312 -7.1875 7.0625 C-7.90292969 6.68222656 -8.61835937 6.30195312 -9.35546875 5.91015625 C-9.89816406 5.60980469 -10.44085938 5.30945312 -11 5 C-10.67 4.01 -10.34 3.02 -10 2 C-6.3962102 0.47839986 -3.94779314 0 0 0 Z " fill="#343331" transform="translate(123,31)"/>
<path d="M0 0 C3.9492568 0.55105909 7.34920174 1.38935371 11 3 C10 6 10 6 6.625 7.6875 C3 9 3 9 0 9 C0 8.34 0 7.68 0 7 C1.65 6.34 3.3 5.68 5 5 C2.22739701 3.06201737 2.22739701 3.06201737 0 2 C0 1.34 0 0.68 0 0 Z " fill="#31302E" transform="translate(74,31)"/>
<path d="M0 0 C0.33 0.66 0.66 1.32 1 2 C-2.14930893 3.04976964 -4.38814456 3.10131595 -7.6875 3.0625 C-8.68136719 3.05347656 -9.67523438 3.04445312 -10.69921875 3.03515625 C-11.83810547 3.01775391 -11.83810547 3.01775391 -13 3 C-12.67 2.01 -12.34 1.02 -12 0 C-7.97721741 -1.88711769 -3.68458206 -2.94766565 0 0 Z " fill="#F1DCC9" transform="translate(138,139)"/>
<path d="M0 0 C0.33 0 0.66 0 1 0 C1.144375 1.134375 1.28875 2.26875 1.4375 3.4375 C1.61171478 6.80777201 1.61171478 6.80777201 3 8 C4.84891946 8.23363881 6.70488031 8.41303635 8.5625 8.5625 C9.57441406 8.64628906 10.58632812 8.73007813 11.62890625 8.81640625 C12.41136719 8.87699219 13.19382812 8.93757812 14 9 C11.94766315 11.2477975 10.99332739 12.0022242 8 13 C1.28421053 10.56842105 1.28421053 10.56842105 0 8 C-0.13415472 5.3276379 -0.04318541 2.67749512 0 0 Z " fill="#EBBE0A" transform="translate(109,133)"/>
<path d="M0 0 C4.29 0 8.58 0 13 0 C10.54278328 1.63814448 8.65432189 2.61952199 5.9375 3.625 C5.24527344 3.88539062 4.55304688 4.14578125 3.83984375 4.4140625 C2 5 2 5 0 5 C0 3.35 0 1.7 0 0 Z " fill="#F1B1B4" transform="translate(118,95)"/>
<path d="M0 0 C0.99 0 1.98 0 3 0 C3 2.64 3 5.28 3 8 C4.32 8.66 5.64 9.32 7 10 C5.00045254 10.04254356 2.99958364 10.04080783 1 10 C0 9 0 9 -0.09765625 6.93359375 C-0.08605469 6.10988281 -0.07445313 5.28617188 -0.0625 4.4375 C-0.05347656 3.61121094 -0.04445313 2.78492188 -0.03515625 1.93359375 C-0.02355469 1.29550781 -0.01195313 0.65742188 0 0 Z " fill="#806B5E" transform="translate(111,178)"/>
<path d="M0 0 C0.66 0.33 1.32 0.66 2 1 C0.88266271 2.50571657 -0.24410035 4.00444292 -1.375 5.5 C-2.00148438 6.3353125 -2.62796875 7.170625 -3.2734375 8.03125 C-3.84320313 8.6809375 -4.41296875 9.330625 -5 10 C-5.66 10 -6.32 10 -7 10 C-7 9.34 -7 8.68 -7 8 C-7.66 7.67 -8.32 7.34 -9 7 C-6.03 4.69 -3.06 2.38 0 0 Z " fill="#796458" transform="translate(63,14)"/>
<path d="M0 0 C-1.98 0.99 -1.98 0.99 -4 2 C-4 2.66 -4 3.32 -4 4 C-3.01 4.33 -2.02 4.66 -1 5 C-5.05606165 4.53199289 -8.46588679 4.12046792 -12 2 C-12 1.67 -12 1.34 -12 1 C-7.93631321 0.22596442 -4.13574827 -0.0984702 0 0 Z " fill="#54513C" transform="translate(112,149)"/>
<path d="M0 0 C1.2065625 0.0309375 1.2065625 0.0309375 2.4375 0.0625 C2.1075 1.7125 1.7775 3.3625 1.4375 5.0625 C0.1175 5.3925 -1.2025 5.7225 -2.5625 6.0625 C-2.94468767 4.40635343 -3.27645102 2.73792976 -3.5625 1.0625 C-2.5625 0.0625 -2.5625 0.0625 0 0 Z " fill="#393A34" transform="translate(55.5625,118.9375)"/>
<path d="M0 0 C-0.33 1.32 -0.66 2.64 -1 4 C-4.375 4.125 -4.375 4.125 -8 4 C-8.66 3.34 -9.32 2.68 -10 2 C-6.3558226 -0.4294516 -4.28758728 -0.16179575 0 0 Z " fill="#304251" transform="translate(424,90)"/>
<path d="M0 0 C0.66 0 1.32 0 2 0 C2.02689216 1.47906892 2.04634621 2.95827483 2.0625 4.4375 C2.07410156 5.26121094 2.08570312 6.08492187 2.09765625 6.93359375 C2 9 2 9 1 10 C-0.66617115 10.04063832 -2.33388095 10.042721 -4 10 C-2.68 9.67 -1.36 9.34 0 9 C-0.33 8.34 -0.66 7.68 -1 7 C-1.125 3.9375 -1.125 3.9375 -1 1 C-0.67 0.67 -0.34 0.34 0 0 Z " fill="#7D685B" transform="translate(84,178)"/>
<path d="M0 0 C4.53460431 1.13365108 5.90024653 2.64193374 9 6 C8.01 6.66 7.02 7.32 6 8 C4.02 5.36 2.04 2.72 0 0 Z " fill="#735E51" transform="translate(129,14)"/>
<path d="M0 0 C0.8353125 0.37125 0.8353125 0.37125 1.6875 0.75 C0.4809375 1.36875 0.4809375 1.36875 -0.75 2 C-3.64903505 3.97982881 -3.66432485 4.50912425 -4.3125 7.75 C-5.3025 8.08 -6.2925 8.41 -7.3125 8.75 C-7.625 6.5 -7.625 6.5 -7.3125 3.75 C-3.41056452 -0.36870968 -3.41056452 -0.36870968 0 0 Z " fill="#F1DFCF" transform="translate(90.3125,170.25)"/>
<path d="M0 0 C0.33 0 0.66 0 1 0 C1.33 4.62 1.66 9.24 2 14 C-1 11 -1 11 -1.328125 8.80859375 C-1.30234375 8.02613281 -1.2765625 7.24367187 -1.25 6.4375 C-1.23453125 5.65246094 -1.2190625 4.86742187 -1.203125 4.05859375 C-1 2 -1 2 0 0 Z " fill="#F4E3D4" transform="translate(29,142)"/>
<path d="M0 0 C1.58467728 0.28427417 3.1677057 0.57774818 4.75 0.875 C6.07257812 1.11863281 6.07257812 1.11863281 7.421875 1.3671875 C9.86947744 1.96796264 11.80599857 2.77997117 14 4 C14 4.33 14 4.66 14 5 C8.58609132 4.53328373 4.79482068 3.75702189 0 1 C0 0.67 0 0.34 0 0 Z " fill="#F1DDCA" transform="translate(55,136)"/>
<path d="M0 0 C1.5 1.375 1.5 1.375 3 3 C3 3.66 3 4.32 3 5 C0.625 6.0625 0.625 6.0625 -2 7 C-2.66 6.67 -3.32 6.34 -4 6 C-3.34 4.68 -2.68 3.36 -2 2 C-1.34 2 -0.68 2 0 2 C0 1.34 0 0.68 0 0 Z " fill="#F0DBCB" transform="translate(140,88)"/>
<path d="M0 0 C0.66 0 1.32 0 2 0 C3.01866229 1.65532623 4.01810813 3.32260138 5 5 C5.66 5.33 6.32 5.66 7 6 C7 5.01 7 4.02 7 3 C7.66 3 8.32 3 9 3 C8.67 4.65 8.34 6.3 8 8 C4.21479387 7.45925627 2.40822445 5.92427254 0 3 C0 2.01 0 1.02 0 0 Z " fill="#804643" transform="translate(76,55)"/>
<path d="M0 0 C1.29585916 0.42492126 2.5866044 0.86545882 3.875 1.3125 C4.59429687 1.55613281 5.31359375 1.79976562 6.0546875 2.05078125 C8 3 8 3 10 6 C10 6.99 10 7.98 10 9 C9.01 9 8.02 9 7 9 C6.690625 7.824375 6.690625 7.824375 6.375 6.625 C5.19323388 3.69083714 5.19323388 3.69083714 1.875 2.6875 C0.92625 2.460625 -0.0225 2.23375 -1 2 C-0.67 1.34 -0.34 0.68 0 0 Z " fill="#F5E4D5" transform="translate(104,169)"/>
<path d="M0 0 C1.98 0.66 3.96 1.32 6 2 C4.02 4.97 4.02 4.97 2 8 C-0.1519437 4.77208445 -0.20086443 3.71599191 0 0 Z " fill="#9D8A80" transform="translate(46,4)"/>
<path d="M0 0 C1.65 0 3.3 0 5 0 C4.67 1.65 4.34 3.3 4 5 C2.35 4.67 0.7 4.34 -1 4 C-0.67 2.68 -0.34 1.36 0 0 Z " fill="#4D5C69" transform="translate(429,114)"/>
<path d="M0 0 C3.23060419 0.55700072 5.0658223 1.29215122 7 4 C7.1875 6.6875 7.1875 6.6875 7 9 C6.34 9 5.68 9 5 9 C4.54625 8.071875 4.0925 7.14375 3.625 6.1875 C2.0578367 2.96078611 2.0578367 2.96078611 0 0 Z " fill="#FE9598" transform="translate(46,35)"/>
<path d="M0 0 C0.33 0 0.66 0 1 0 C1.06058594 0.84304687 1.12117188 1.68609375 1.18359375 2.5546875 C1.26738281 3.65039062 1.35117187 4.74609375 1.4375 5.875 C1.51871094 6.96554688 1.59992188 8.05609375 1.68359375 9.1796875 C1.83001703 11.94728971 1.83001703 11.94728971 3 14 C1.35 14 -0.3 14 -2 14 C-1.34 9.38 -0.68 4.76 0 0 Z " fill="#52616D" transform="translate(360,114)"/>
<path d="M0 0 C0.33 0.66 0.66 1.32 1 2 C-2.465 4.97 -2.465 4.97 -6 8 C-6 5.37886292 -5.68707555 3.49064888 -5 1 C-3.35 0.67 -1.7 0.34 0 0 Z " fill="#EEDED0" transform="translate(151,127)"/>
<path d="M0 0 C0.66 0 1.32 0 2 0 C2 0.99 2 1.98 2 3 C2.66 3.33 3.32 3.66 4 4 C3.01 4 2.02 4 1 4 C1 4.99 1 5.98 1 7 C0.34 7 -0.32 7 -1 7 C-1 6.01 -1 5.02 -1 4 C-1.66 4 -2.32 4 -3 4 C-3 3.34 -3 2.68 -3 2 C-2.01 2 -1.02 2 0 2 C0 1.34 0 0.68 0 0 Z " fill="#FCF07E" transform="translate(89,119)"/>
<path d="M0 0 C0.66 0 1.32 0 2 0 C2 2.64 2 5.28 2 8 C1.67 7.34 1.34 6.68 1 6 C-1.01669827 4.86649466 -1.01669827 4.86649466 -3 4 C-1.625 2 -1.625 2 0 0 Z " fill="#9A877C" transform="translate(145,0)"/>
<path d="M0 0 C0.96697501 3.86790003 0.979595 5.08162002 0.0625 8.75 C-0.22947266 9.94882812 -0.22947266 9.94882812 -0.52734375 11.171875 C-0.68332031 11.77515625 -0.83929688 12.3784375 -1 13 C-1.99 11.68 -2.98 10.36 -4 9 C-2.68 6.03 -1.36 3.06 0 0 Z " fill="#F5DCCE" transform="translate(55,29)"/>
<path d="M0 0 C2 2 2 2 2.1953125 4.1640625 C2.17210937 4.97617188 2.14890625 5.78828125 2.125 6.625 C2.10695312 7.44226563 2.08890625 8.25953125 2.0703125 9.1015625 C2.03550781 10.04128906 2.03550781 10.04128906 2 11 C1.67 11 1.34 11 1 11 C1 8.69 1 6.38 1 4 C-0.32 3.67 -1.64 3.34 -3 3 C-2.01 2.01 -1.02 1.02 0 0 Z " fill="#BEB1A3" transform="translate(142,136)"/>
<path d="M0 0 C3.875 1.75 3.875 1.75 5 4 C3.02 4.33 1.04 4.66 -1 5 C-1.33 4.01 -1.66 3.02 -2 2 C-1.34 1.34 -0.68 0.68 0 0 Z " fill="#E8D1BD" transform="translate(134,137)"/>
<path d="M0 0 C0.66 0.66 1.32 1.32 2 2 C1.7578125 4.6015625 1.7578125 4.6015625 1.125 7.625 C0.81949219 9.12933594 0.81949219 9.12933594 0.5078125 10.6640625 C0.34023437 11.43492187 0.17265625 12.20578125 0 13 C-0.33 13 -0.66 13 -1 13 C-1.02686553 11.02090602 -1.04633375 9.04171029 -1.0625 7.0625 C-1.07410156 5.96035156 -1.08570312 4.85820312 -1.09765625 3.72265625 C-1 1 -1 1 0 0 Z " fill="#A88D5A" transform="translate(111,127)"/>
<path d="M0 0 C2 3 2 3 2 5 C0.68 4.67 -0.64 4.34 -2 4 C-2 3.34 -2 2.68 -2 2 C-3.98 2 -5.96 2 -8 2 C-8 1.67 -8 1.34 -8 1 C-5.36 0.67 -2.72 0.34 0 0 Z " fill="#4E5D6A" transform="translate(423,123)"/>
<path d="M0 0 C1.65 0.33 3.3 0.66 5 1 C4.67 1.99 4.34 2.98 4 4 C2.35 4 0.7 4 -1 4 C-0.67 2.68 -0.34 1.36 0 0 Z " fill="#3F4E5B" transform="translate(147,124)"/>
</svg>
